<svg width="28" height="28" viewBox="0 0 28 28" fill="none" xmlns="http://www.w3.org/2000/svg"><g clip-path="url(#clip0)" fill="#064E3C"><path d="M20.26 2.43a5.3 5.3 0 015.31 5.3v12.12a5.3 5.3 0 01-5.3 5.3H7.73a5.36 5.36 0 01-5.31-5.34V7.74c0-2.95 2.36-5.31 5.3-5.31h12.53zm0-2.43H7.74A7.74 7.74 0 000 7.74v12.1a7.77 7.77 0 007.74 7.74H20.3a7.77 7.77 0 007.73-7.73V7.74A7.8 7.8 0 0020.26 0z"/><path d="M14.12 9.13a4.76 4.76 0 11-.01 9.52 4.76 4.76 0 01.01-9.52zm0-2.43a7.17 7.17 0 10-.01 14.34 7.17 7.17 0 00.01-14.34zM21.55 7.98a1.6 1.6 0 100-3.2 1.6 1.6 0 000 3.2z"/></g><defs><clipPath id="clip0"><path fill="#fff" d="M0 0h28v27.55H0z"/></clipPath></defs></svg>
