<svg xmlns="http://www.w3.org/2000/svg" viewBox="0 0 972 971.6"><defs><style>.cls-1{fill:#eb232e}</style></defs><g id="Layer_2" data-name="Layer 2"><g id="Layer_1-2" data-name="Layer 1"><path class="cls-1" d="M0 485.7C.4 217.4 217-.3 486.5 0a485.8 485.8 0 11-1.7 971.6A486.3 486.3 0 010 485.6zm23.5 0C23.3 739 228.2 947.7 485.2 948s463.2-207.3 463.4-461.7A462.4 462.4 0 00487 23.4 462.5 462.5 0 0023.5 485.7z"/><path class="cls-1" d="M312.4 409.4l-1-.3-15.2 3.1-2 4.8-10 25.4-.8 2.3c-1.7 4.7-3.3 4-6.5 2.6-5.1-2.1-10.3-4.2-15.6-6a54.3 54.3 0 00-22.2-2.6 23.5 23.5 0 00-15.3 7.2 34.9 34.9 0 00-7.4 11.6A52.3 52.3 0 00213 470a88.2 88.2 0 001.5 35.2 36.4 36.4 0 004.8 11 26 26 0 0016.1 11.1 50.6 50.6 0 0018.1.6c9.5-1.2 18.3-4.4 27.2-7.7l4.4-1.7c2.3-.6 3.8.4 4 2.7a17.6 17.6 0 010 2v33.6c.2 2.2-.8 3.5-2.8 4.4a104.9 104.9 0 01-16 5.2 125.4 125.4 0 01-18 3 17 17 0 00-1.7.4 75 75 0 00-.2 20c1.4 1 3 .7 4.6.7h19.7c6 0 6 0 6 6.3v26.8c0 4.3-.6 5-5 5h-25.1a14 14 0 00-.7 3v44a13.1 13.1 0 00.5 3.4 6.7 6.7 0 005.2 5 17.3 17.3 0 006.6.3 69.3 69.3 0 0014-3 29 29 0 012.8-1c2-.5 3.4.6 3.6 2.6a17.6 17.6 0 010 2l.1 27.8c.1 2.9-1 4.3-3.6 5.3a84.3 84.3 0 01-25.6 6 125.7 125.7 0 01-17.2 0 47.5 47.5 0 01-14.8-3.8 30.6 30.6 0 01-15.2-14 44.4 44.4 0 01-4.8-15.5 119 119 0 01-1-13.9v-42.2l-.2-5.4a21.9 21.9 0 00-3-.5h-8.1c-2.7 0-4-1.2-4-3.8v-15.8a4.3 4.3 0 011.8-3.7l5.9-4.2 9-6.3a12 12 0 004.7-5.8c2.4-6 5-11.8 7.4-17.7l1.5-3.8-2.7-1.2a65.2 65.2 0 01-45-41.6 103.3 103.3 0 01-6-27.5 134.7 134.7 0 010-26.3 92.7 92.7 0 0111.2-36.4 71.4 71.4 0 0145.1-34.7l3.3-.8 1.6-.6.4-3V252.3v-4.8a3 3 0 012.8-3 23.2 23.2 0 013.3 0c18 0 36.2-.2 54.2 0 12.2 0 24.3 1.5 35.9 5.6a66.3 66.3 0 0145 50.6 115 115 0 01-2 57.9 72.8 72.8 0 01-14 26.5L347 387v.5c.1 1 1 1 1.8 1h7.2a24.7 24.7 0 013.3.3 2.7 2.7 0 012.3 2.7c.2 1.4.2 2.8.2 4.3a737 737 0 01-1 47.4v2.2c1.2.7 1.7-.1 2.2-.6a39.5 39.5 0 0124-11 57.3 57.3 0 0123.2 1.8 40.4 40.4 0 0129.4 31.1 66 66 0 012 16.2V563.1c-.1 3.5-.8 4.3-4.2 4.3h-40.8a15.2 15.2 0 01-1.9-.1 2.4 2.4 0 01-2.2-2.2 32.6 32.6 0 01-.2-4.3v-64.2c0-4 0-8-1-12a30.5 30.5 0 00-2.4-6.2 9.4 9.4 0 00-8.6-5c-6.4-.2-11 2.4-14 8.1a35.5 35.5 0 00-3.1 10 93.5 93.5 0 00-1.2 17.2v51.8a32.4 32.4 0 01-.2 4.3c-.2 1.7-1.2 2.4-3 2.6h-40.3c-5.3 0-5.7-.3-5.7-5.7v-116V414c0-1.5.3-3.2-.5-4.6zm-83.4-159v149.2c-.2 3-.6 3.5-3.6 4.2-2 .6-4 .9-6 1.4a65.9 65.9 0 00-39.3 28.1 85.1 85.1 0 00-12.7 37.3 126.4 126.4 0 000 26.8 97.8 97.8 0 005.2 24.3c5 13.9 13.4 25 26.1 32.7 9.6 5.7 20 8.4 31 9.4a125.7 125.7 0 0021 .1 105.2 105.2 0 0029.9-6.4 27.4 27.4 0 002.8-1.4c.6-4.8.6-26.7 0-30.4-1.8-.4-3.1.5-4.6 1-8.2 2.8-16.3 5.6-25 6.6a56.8 56.8 0 01-19-.6 31.2 31.2 0 01-20.4-14.2 45 45 0 01-5.4-12.7 92 92 0 01-2.3-26.7 70.2 70.2 0 014.2-22.5 40.5 40.5 0 0110-15.6 27.6 27.6 0 0116.2-7.6 59.5 59.5 0 0125 2.4c4.5 1.4 8.8 3.1 13.1 4.7l3.3 1 2-4.6 7.9-20c.8-2.2 1.6-4 .2-6.4-.8-1.3.3-2.8 1.9-3.2a29 29 0 014.2-.7 75.9 75.9 0 0014.1-2.8l5.5-1.6c2.3-.6 3.7.4 3.9 2.8V559a17.2 17.2 0 00.6 2.6 10.5 10.5 0 001.6.3H354a12.1 12.1 0 002.4-.5l.2-5.4v-29.8l.1-25.4a55.7 55.7 0 012-14.2 43.6 43.6 0 013.3-8.5 18.2 18.2 0 0113-9.8c9.8-2 17 1.7 20.3 10.7a43.5 43.5 0 011.5 5.5 51.8 51.8 0 011 12v60c0 1.7-.3 3.5.6 5.2a13 13 0 002 .3h33.5a10.6 10.6 0 002.4-.7V556v-50.3-23a57.5 57.5 0 00-2.7-18 34.6 34.6 0 00-23.5-23.3 53.4 53.4 0 00-21.8-1.9 33.5 33.5 0 00-25.6 15 9 9 0 01-1.6 1.8 4.2 4.2 0 01-4.5.4 2.8 2.8 0 01-1.7-3l.4-6.3c1.4-16.6 1.5-33.2 1.4-49.9a19.7 19.7 0 00-.5-2.9c-1.5-.1-2.7-.4-4-.4h-10.5a21.8 21.8 0 01-3.3-.2 2.5 2.5 0 01-1.6-4 15.6 15.6 0 012-2 66.9 66.9 0 0019-31.6 109 109 0 001.7-54.1 61 61 0 00-42.3-46.9 101.7 101.7 0 00-32-5.1c-17.2-.3-34.5-.1-51.8 0-1.3-.2-2.5 0-4.4.2zm-8.5 320.4l-2 4.5c-2.5 5.7-5 11.4-7.3 17.2a12.2 12.2 0 01-4.7 5.8l-13.7 9.7a4.3 4.3 0 00-2.2 4v8.1a14.1 14.1 0 00.8 3h5.4l6.2.1c1.9.1 2.7.9 2.8 2.7l.1 4.3v49.4a60.2 60.2 0 002.9 18.4 27.3 27.3 0 0019.9 19 47.1 47.1 0 006 1.3 87.8 87.8 0 0028.2-1 52.7 52.7 0 0014.2-4.7 59.7 59.7 0 00.2-8.6v-8.2c0-2.8.6-5.6-.6-8.7-2.6.6-5 1.2-7.6 1.6-4.7.8-9.4 1.8-14.2.7-5-1.1-8.3-4-9.6-9a25.3 25.3 0 01-.7-6v-45.6c0-5.4.2-5.6 5.8-5.6H271c1.4 0 2.9.3 4.1-1a6.8 6.8 0 00.3-1.3v-23a7.3 7.3 0 00-.7-2h-26.3c-2.8-.2-3.6-1-3.7-4v-3.3-14.4a24 24 0 00-.4-3c-4-1-18-1.1-23.8-.4zM535.6 645a18.1 18.1 0 00-.6 2c-4.1 23.2-10.4 45.9-15.6 68.8-1.5 6.5-1.1 6.2-7.9 6.2h-37.9l-4.8-.2c-1.8-1.5-2-3.4-2.4-5l-30-109.6-3.2-12a7.2 7.2 0 01-.3-2.3 2.1 2.1 0 011.7-2 13.7 13.7 0 012.9-.3h38.8a37 37 0 014 .4c2 5.6 2.6 11.3 3.9 16.9l3.6 16.9c1.1 5.7 2.2 11 3.5 16.4s1.7 11.2 3.2 16.6c1.3.2 1.3-.6 1.4-1.2 3.8-20.6 9.2-40.8 13.6-61.2l.5-1.9c.7-2.3 1.2-2.7 3.8-2.9h44.1l5 .3c.4 1.4.8 2.6 1 3.8l8.6 40.8 4 20.2 1.5 5c.6-2.2 1-3.4 1.1-4.7 1.1-8.8 3.4-17.5 5.4-26.2l7.7-33.7c1.2-5.4 1.3-5.4 7-5.4h38.3c2.2.2 3 1.4 2.6 3.7l-.7 2.8-32.7 119.2-.5 1.4c-1.2 4-1.2 4.2-5.5 4.2h-42.2l-2.4-.1a2.4 2.4 0 01-2.1-1.7 27.1 27.1 0 01-1-3.6c-4.5-18.7-9-37.3-13.2-56-1-4.4-1.7-8.8-2.5-13.2-.2-1-.3-2-1.7-2.4zm62.3-48.6c-.4 1.5-1 3-1.3 4.6-2.2 9.5-4.5 19-6.5 28.4-2 8.8-4.4 17.4-5.5 26.3l-2.6 21.9c-.2 2-.4 4.1-.8 6.2-.2 1.2-1.3 1.7-2.5 1.8-1.6 0-2.7-.6-3-1.9-.4-1.7-.6-3.5-.8-5.2-.5-3.3-.8-6.7-1.4-10l-14-69.5a20 20 0 00-.9-2.6c-4-.7-39.2-.7-43.5 0l-1.1 4-7.6 32.7c-2.8 12-5.3 24-7 36.2-.7 4.2-1.2 8.5-1.7 12.8-.1 1.1-.2 2.2-1.2 3a3 3 0 01-4.7-1.7 17.5 17.5 0 01-.4-3.3A191 191 0 00488 653c-3.5-18-7.4-36-11.1-54a23.5 23.5 0 00-.8-2.6 258 258 0 00-33.7-.6 22.3 22.3 0 00-3 .6l1 4.8 4.5 16.2 25.8 94.3 1.3 4.3c4.2.6 36.6.6 41.3 0a27 27 0 001-3l5-21c4.9-19.3 9.3-38.7 12.5-58.5.4-2.7 1-5.3 1.6-8a2.7 2.7 0 013-1.9c1.1.2 2.2.6 2.5 1.9l.9 4.2c1.7 9.7 3 19.6 5 29.2 4 18 8.5 35.8 12.8 53.7.2 1.2.7 2.3 1.2 3.7h39a26.5 26.5 0 002.9-.3 15 15 0 00.8-1.8l31.9-116.4a5.7 5.7 0 000-1.5 5 5 0 00-1.4-.5h-32.1a11 11 0 00-2 .5zM690.3 590.8l4.8 12.8c1.4.4 1.9-.4 2.4-1a43.8 43.8 0 0129-14 61.5 61.5 0 0121.5 1 39.9 39.9 0 0131.7 31.7 64.5 64.5 0 011.8 14.7c.2 26.9.1 53.7.1 80.6 0 5-.4 5.4-5.5 5.5h-38.4c-4.7 0-5.2-.6-5.2-5.3v-49.4-17.3c0-4 0-8-1.2-11.9a29.8 29.8 0 00-1.6-4.5 9.7 9.7 0 00-9.2-5.8c-7.4-.2-12.6 3-15.3 10a53 53 0 00-3 16l-.3 11v50.4a34.4 34.4 0 01-.1 4.3 2.6 2.6 0 01-2.6 2.4 25.1 25.1 0 01-2.9.1h-37.9c-5.2 0-5.6-.4-5.6-5.8v-120a23.8 23.8 0 010-2.3c.2-2.4 1-3.1 3.3-3.3h30.2c1.1-.2 2.2 0 4 .1zm6 125.1l.2-5.4v-45.6c0-3.7 0-7.4.2-11 .4-6 1.2-12.1 3.4-17.8a19.7 19.7 0 0120.3-13.7 15 15 0 0114.3 9.3 32.7 32.7 0 012.9 11.6c.2 3 .2 6 .2 9.1v58c0 2-.4 3.9.7 5.7 3 .8 6 .3 9 .4h18.7c3.1 0 6.4.4 9.7-.4 0-1.5.3-2.7.3-4v-75.8a56 56 0 00-1.8-14.2A34.9 34.9 0 00747 595a55.6 55.6 0 00-29 .9 33.4 33.4 0 00-18.5 12.8 13.8 13.8 0 01-.8 1.2 4.5 4.5 0 01-7.8-1.2c-1.1-2.8-2-5.7-3-8.5l-1.7-4.2c-4.8-.3-9.4-.2-14 0s-9.2-.7-13.8.4a21.7 21.7 0 00-.4 6.4v110.8a18.2 18.2 0 00.6 2.5c5.1.7 33.6.6 37.7-.2zM582.9 450c1.1-1.2 1.9-1.8 2.5-2.4 7-7.8 16-11.6 26-13.2a68.7 68.7 0 0118.6-.3 41.4 41.4 0 0137.6 34.2 77.7 77.7 0 011.3 15.8v77.2c0 6-.1 6.2-6.2 6.2h-38.9c-3.2-.2-3.7-.8-3.9-4.1v-3.9-62.8c0-4 0-8-1-12a32.7 32.7 0 00-2.2-6.2 9.2 9.2 0 00-8.1-5.1c-8.3-.6-13.6 3.4-16 10.2a45.6 45.6 0 00-2.6 11.6c-.4 5-.7 10-.7 14.9v50.8c0 6.5 0 6.6-6.7 6.6H546c-5.5 0-5.7-.3-5.7-5.7V441.4c0-5 .4-5.4 5.4-5.4h28.4c2.6-.3 4.2.8 5 3.4.6 2.1 1.4 4.2 2.2 6.3.2 1.2.7 2.4 1.5 4.2zM663 561.4c.8-1.4.6-3 .6-4.6v-72.4a66.7 66.7 0 00-1.6-16.2 35.1 35.1 0 00-27.3-27.8 55.5 55.5 0 00-28.9.8 33.4 33.4 0 00-18.9 13.1l-.5.8c-2.6 3-6.5 2.4-8-1.2l-3.3-9c-.4-1.2-1-2.3-1.4-3.3-6-.7-23.9-.6-27.5.2a1.8 1.8 0 00-.3.4 3 3 0 00-.2.9l-.1 4.8.2 112.7a.9.9 0 000 .4 6.3 6.3 0 00.9.8c3.6.4 7.7 0 11.8.1H571c4.1 0 8.2.5 12.6-.5l.2-5.8v-45.5c0-4.8.2-9.6.6-14.4a47.5 47.5 0 013.9-16.2c2.8-6 7.4-10 14-11.3a27.9 27.9 0 016.1-.4 14.5 14.5 0 0113 7.8 28.3 28.3 0 013 8.6 62.7 62.7 0 011 12v62.2a20 20 0 00.4 3.1c5 .6 33.6.5 37.2 0z"/><path class="cls-1" d="M433.5 362.3a11.7 11.7 0 00.2 2.8 17.9 17.9 0 009.6 10.8 28.4 28.4 0 0011.5 2.8 87 87 0 0039.7-7.5c1.3-.5 2.7-1 4-1.7a2.8 2.8 0 013.7 2 14.8 14.8 0 01.2 3.4v11l2.7 1.4c6.4 2.8 10 7.7 11.3 14.5a27.9 27.9 0 01.1 10c-1.5 8.8-7.3 14.6-16.5 16.4a44.2 44.2 0 01-18 0c-6.6-1.4-12-4.5-15-11l-1.2-2.2h-5.2c-6 0-12.2.2-18.2-.2a68.2 68.2 0 01-30.1-8.9 55.7 55.7 0 01-26.6-36 90.9 90.9 0 01-2.4-27.1 93 93 0 013.4-21.8 55.2 55.2 0 0124.2-32.8 60.5 60.5 0 0125.7-8.4 109 109 0 0113.9-.8 79.6 79.6 0 0122.6 3.6 50.3 50.3 0 0136 41 65.7 65.7 0 011.2 10.9c.2 7.5.1 15 .1 22.5a15.3 15.3 0 010 2c-.3 1.5-1 2.3-2.4 2.5a36.2 36.2 0 01-4.8.3h-63.8c-2 0-3.9-.3-6 .5zm63.5 14.3l-4.3 1.3a89.8 89.8 0 01-37.1 6.2 41.7 41.7 0 01-9-1.2 24.4 24.4 0 01-19.3-21.8c-.1-1.7-.1-3.2 1.6-4.6l5.5-.1H502a23.1 23.1 0 002.8-.6l.3-3.5c0-4.8.2-9.6 0-14.4a95.7 95.7 0 00-1.3-13.3 44.8 44.8 0 00-34.2-37.3 78.9 78.9 0 00-39.9-.7 49 49 0 00-37 33.4 93 93 0 00-1.5 49.7 50.1 50.1 0 0027.8 33.6 67.3 67.3 0 0024 6.1 135.7 135.7 0 0019.6.1h5.8a2.4 2.4 0 012.2 1.5 17.2 17.2 0 01.7 2.3 12.6 12.6 0 008.8 8.7 38 38 0 006 1.4 33.5 33.5 0 0016.1-1.6 12.7 12.7 0 008.8-10 21.9 21.9 0 00-.4-10.9 12.6 12.6 0 00-7.8-8.5l-1.8-.6c-4-1.4-4-1.4-4-5.8v-9.4zM761.7 481.7a9.9 9.9 0 00-1.9-7.8 9.3 9.3 0 00-6-3.6 24.7 24.7 0 00-8-.3c-8.5.9-16.6 3.5-24.5 6.5l-4.9 2c-2.6 1-3.6.6-5-2l-.7-1.7-10-22.9-1-2.2c-.8-2.5-.4-3.7 2-5a84.3 84.3 0 0117.5-6.5 119 119 0 0125-4c4.7-.2 9.3-.7 14-.6 7.6 0 15.3.9 22.6 3.5q26.6 9.3 29.9 37.3a92.3 92.3 0 01.5 10.6v75.3a40.1 40.1 0 01-.2 4.8 2.6 2.6 0 01-2.6 2.3 17.5 17.5 0 01-1.9 0h-27.3c-.7 0-1.3 0-2.2-.2-3.4-4-4.7-9.5-7.9-14-1.9.6-2.9 2.2-4 3.4a41.1 41.1 0 01-19.4 11c-9.7 2.4-19.6 3-29.4.9a35 35 0 01-27.8-26.2 53.1 53.1 0 01-.5-28.9 33.9 33.9 0 0114.6-20.1 58.9 58.9 0 0119.3-8 117.2 117.2 0 0124.7-3c3.6 0 7 0 10.6-.2 1.4 0 2.8-.3 4.5-.4zm44 80.3l.2-6.4v-72a70.7 70.7 0 00-.8-11 36.1 36.1 0 00-20.6-28.2 47.4 47.4 0 00-7.1-2.7 67.7 67.7 0 00-19.5-2.7 161.8 161.8 0 00-23.9 1.7 102.2 102.2 0 00-25.4 6.8 24.9 24.9 0 00-2.9 1.7c1.2 4.2 3.2 8 4.9 11.7s3 8 5.5 11.7l8.7-3.2a88.7 88.7 0 0122-5 26.1 26.1 0 0110 1 14.2 14.2 0 019.6 9.2 23.4 23.4 0 011.1 8.5c0 3-.5 3.8-3.5 4-4.8.4-9.6.6-14.4.6a125 125 0 00-22 2 58.9 58.9 0 00-21.8 8.1 29.7 29.7 0 00-13.4 20.7 52.6 52.6 0 00.3 18.1 31.7 31.7 0 0029.5 27.5 74.3 74.3 0 0016.3-.4 37 37 0 0023.2-11.4l3.6-3.9 1.6-1.8a3.4 3.4 0 015.6.8l4.6 9 3 5.6h25.6zM598.3 327c.3-6.2-2.1-9.7-7.3-11a23.5 23.5 0 00-9-.5c-9.3 1-18 4-26.6 7.5-1.2.5-2.3 1.1-3.5 1.5a2.5 2.5 0 01-3-1 15.2 15.2 0 01-1-2.2l-11-25c-1.4-3-2.2-4.5 2.5-6.7a103.1 103.1 0 0124-7.8A161.6 161.6 0 01593 279a74.2 74.2 0 0121.8 2.7 52.3 52.3 0 017.2 2.7 42 42 0 0125.4 35.6 73 73 0 01.3 8.6v77.2c0 7.7-.3 7.1-7.1 7.1h-26.9c-3.5-4.3-4.7-9.8-8-14.2-2 .7-3 2.3-4.1 3.5a42.8 42.8 0 01-23.5 12 94.8 94.8 0 01-19.1.8 37 37 0 01-9.8-1.9 34.4 34.4 0 01-22.5-20.8 52.6 52.6 0 01-1.9-33.8 33.3 33.3 0 0114-19.4 58 58 0 0119.8-8.3 113.9 113.9 0 0124.7-3c3.8 0 7.6 0 11.5-.2a27 27 0 003.5-.7zm-45.8-8.8l6.4-2.4a95.8 95.8 0 0123.7-5.9 27.6 27.6 0 0110.4.9 13.8 13.8 0 019.5 8.1 22.6 22.6 0 011.6 10.8c-.1 1.8-.9 2.5-2.7 2.8a21.2 21.2 0 01-2.4.2c-4.6.2-9.3.5-14 .5a117.5 117.5 0 00-21.3 2 60.4 60.4 0 00-19.8 7 29.6 29.6 0 00-14.7 21 50.8 50.8 0 00.5 20.9 31.4 31.4 0 0029.7 25.4 77.5 77.5 0 0014.8-.3 37 37 0 0022.7-10.3 78.3 78.3 0 005.6-6 4.4 4.4 0 015.7-1.4c3.4 4.8 5 10.8 8.5 15.7 5.5.5 21.6.4 25.1-.2 1-2 .6-4 .6-6.1v-70.5q0-4.3-.3-8.6a37.5 37.5 0 00-27.4-34.5 63.9 63.9 0 00-19-2.8c-5.5 0-11.1.4-16.7.7a109 109 0 00-31.7 7c-1.6.5-3.2 1.4-4.9 2.2a13.4 13.4 0 00.6 2.4c3.1 7 5.9 14.2 9.5 21.4zM715.5 299.4c13.5-17.3 29.8-24 50.8-18.3a16.6 16.6 0 01.5 3.4c-.5 6.4-1 12.7-1.7 19l-1.6 17.2-.1 1.5c-.5 4.2-1.2 4.7-5.6 4.4-4-.4-8-.9-12-1a50.4 50.4 0 00-8.5.9c-11.1 1.8-15 9.2-16 17.5a56 56 0 00-.1 6.2V406a41 41 0 01-.2 4.3 2.8 2.8 0 01-2.7 2.7h-41.8c-3.7 0-4.3-.7-4.5-4.5V406 288.6a38 38 0 01.3-4.8 2.4 2.4 0 012.2-2.2 25 25 0 012.9-.1H706c2.3-.2 3.5 1 4.2 3.1 1 3.4 2.2 6.7 3.3 10l1.9 4.8zm-37.7 107.8l2.4.3h32.6a14.9 14.9 0 002.8-.6l.1-5.5v-51.7c0-2 0-3.9.2-5.8.9-9.7 5.6-20.5 21-23a70 70 0 0117.7-.3 26.1 26.1 0 003.4-.2l2-19.3 1-12.5a17.8 17.8 0 00-.3-3c-10.6-2.6-20-.6-28.6 5.2a40.6 40.6 0 00-13 13.8c-1.2 2-2.8 2.4-4.9 2.2-1.8-.2-2.6-1.4-3.2-3l-4.6-13.7-1.3-2.8a10.8 10.8 0 00-1.6-.4H680a8.2 8.2 0 00-2.1.6c-.7 4.4-1 101.2-.5 116.6 0 .9.2 1.9.4 3zM362.6 724.3c-12 0-21.3-1.1-30-4.6a58.6 58.6 0 01-35.2-38.7c-2.6-8.3-3.4-16.9-3.3-25.6s.8-17.2 3.4-25.5a56 56 0 0144.3-40 80 80 0 0136.5.3 58.2 58.2 0 0144.2 42.8 84.7 84.7 0 012.6 32.3 78.1 78.1 0 01-5 21.9 55.9 55.9 0 01-43.6 35.5c-5.5 1-11 1.3-14 1.6zm-63.2-68.5c.2 6.9.6 14 2.5 21 5.9 21 19 34.8 40.4 40.1a74.5 74.5 0 0034.7.2 51 51 0 0039.5-35.9 77.3 77.3 0 003.2-16 79.1 79.1 0 00-2.5-31.2 52.8 52.8 0 00-38.4-38 74.3 74.3 0 00-38.4 0 50.6 50.6 0 00-38.4 38c-2 7-2.4 14.3-2.6 21.8zM466.2 501.3v-58.5c0-1.4 0-2.9.2-4.3a2.4 2.4 0 012.4-2.4 28.6 28.6 0 013.3-.2h37c5.8 0 6 .2 6 5.9v119.7c0 5.8-.2 6-6 6h-36.8c-6 0-6-.1-6-6.3zm43.5 60.6V444.8a26.2 26.2 0 00-.4-3 8.2 8.2 0 00-1.9-.4H474a8.2 8.2 0 00-2 .5l-.2 3.4v113a3.6 3.6 0 000 .5l.4 3.2c12.4 0 24.7.1 37.6-.1zM267.6 328.4v-41.2-3.8a3.1 3.1 0 013-3.2 2.4 2.4 0 01.5 0c8.1 0 16.3-.5 24.3 1.5a30.7 30.7 0 0121.3 17.7 47.9 47.9 0 013.8 12.8 90 90 0 01-1.4 36.6 50.4 50.4 0 01-3.3 9 32 32 0 01-22 17.6 50.3 50.3 0 01-11.4 1.4h-12c-1.7-.1-2.5-1-2.7-2.8v-3.8zm5.9-42.5c-.7 4.8-.6 81 0 84.9a3.7 3.7 0 001.2.5c7 .5 13.8.1 20.4-2a26.5 26.5 0 0015.8-13.8 42.9 42.9 0 003.7-10.9 87.3 87.3 0 00.8-30.5 43.8 43.8 0 00-4.2-13.6 25.4 25.4 0 00-15.7-13.2 43.6 43.6 0 00-11.3-1.7c-3.5-.1-7-.4-10.7.3z"/><path class="cls-1" d="M449.4 334.2h-18.2c-2-.1-3.3-1.3-3-3.3.5-5.2 1.6-10.2 4.9-14.3 5-6.3 11.7-8.6 19.5-7.7a20.9 20.9 0 0118.2 22c0 2.3-1 3.3-3.2 3.3h-18.2zm15.3-6c0-8.2-6.5-14.3-15.3-14.1-8.5.1-15.1 6.4-14.7 14.2 4 .7 26.2.7 30 0zM767.6 515.1v5.3a20 20 0 01-17 18.1 32.7 32.7 0 01-9 0 11.3 11.3 0 01-10.1-9 19.6 19.6 0 01.2-10.4 15.6 15.6 0 019-10 32.6 32.6 0 0111.5-2.8l11-.4a12.2 12.2 0 012 0 2.5 2.5 0 012.4 2.5v6.7zm-5.7-3.4a62.6 62.6 0 00-11.8.3 26.7 26.7 0 00-5.5 1.4c-6.4 2.4-9 6.6-8 13.4.4 3.6 2.3 5.7 6 6.4a18 18 0 008-.2c5.1-1.4 9.2-4.4 11-9.6a21.8 21.8 0 00.3-11.7zM594.8 351.6c2 0 3.9-.3 5.8-.3 2.7 0 3.6.9 3.7 3.7v10a20 20 0 01-17.5 19 34.2 34.2 0 01-8.1 0c-5.7-.6-9.6-4.3-10.8-9.9a19.5 19.5 0 01.2-9 15.6 15.6 0 019-10.5 31.9 31.9 0 0111.5-2.8c2.1-.2 4.2 0 6.2 0zm3.9 5.5c-5 0-9.4-.3-13.7.8a33.1 33.1 0 00-5 1.5c-6.7 2.7-7.8 9-6.8 13.7.7 3.1 2.6 5.1 5.8 5.5a27.5 27.5 0 008-.1c6-1 11-6.3 11.7-11.8a39 39 0 000-9.6zM381.4 657.3c-.5 4.7-1 10.2-1.9 15.7a34.5 34.5 0 01-2.3 7.8c-4 9.7-12.9 12.1-20.6 11-6.7-1-11.4-4.7-14.2-10.9a42.5 42.5 0 01-3.5-13.8c-.8-9-1-17.9.7-26.8a46.8 46.8 0 012.7-8.6c4-9.5 12.8-12 20.7-11 7.1 1 12 5 14.6 11.6a42.5 42.5 0 012.8 11.2c.5 4.3.7 8.6 1 13.8zm-38-1.6c.4 5.3.5 10.6 1.7 15.7a29.2 29.2 0 003.2 9c2.8 4.6 7 6.3 12.2 6.2s9-2.2 11.2-6.9a32 32 0 002.4-6.8 81.3 81.3 0 00.6-30.5 43.2 43.2 0 00-2.5-8.7 11.7 11.7 0 00-9.8-7.5c-6-.9-12.5.7-15.5 8.3a29.4 29.4 0 00-1.8 6.5c-.8 4.8-1.1 9.8-1.7 14.7z"/></g></g></svg>
